HIERARCHY
ROOT Hips
{
	OFFSET 0.000000 0.000000 0.000000
	CHANNELS 6 Xposition Yposition Zposition Zrotation Yrotation Xrotation 
	JOINT LowerBack
	{
		OFFSET 0.000000 0.000000 0.000000
		CHANNELS 3 Zrotation Yrotation Xrotation
		JOINT Spine
		{
			OFFSET 0.028270 2.035590 -0.193380
			CHANNELS 3 Zrotation Yrotation Xrotation
			JOINT Spine1
			{
				OFFSET 0.056720 2.048850 -0.042750
				CHANNELS 3 Zrotation Yrotation Xrotation
				JOINT Neck
				{
					OFFSET 0.000000 0.000000 0.000000
					CHANNELS 3 Zrotation Yrotation Xrotation
					JOINT Neck1
					{
						OFFSET -0.054170 1.746240 0.172020
						CHANNELS 3 Zrotation Yrotation Xrotation
						JOINT Head
						{
							OFFSET 0.104070 1.761360 -0.123970
							CHANNELS 3 Zrotation Yrotation Xrotation
							End Site
							{
								OFFSET 0.000000 0.000000 0.000000
							}
						}
					}
				}
				JOINT LeftShoulder
				{
					OFFSET 0.000000 0.000000 0.000000
					CHANNELS 3 Zrotation Yrotation Xrotation
					JOINT LeftArm
					{
						OFFSET 3.362410 1.200890 -0.311210
						CHANNELS 3 Zrotation Yrotation Xrotation
						JOINT LeftForeArm
						{
							OFFSET 4.983000 -0.000000 -0.000000
							CHANNELS 3 Zrotation Yrotation Xrotation
							JOINT LeftHand
							{
								OFFSET 3.483560 -0.000000 -0.000000
								CHANNELS 3 Zrotation Yrotation Xrotation
								JOINT LeftFingerBase
								{
									OFFSET 0.000000 0.000000 0.000000
									CHANNELS 3 Zrotation Yrotation Xrotation
									JOINT LeftHandIndex1
									{
										OFFSET 0.715260 -0.000000 -0.000000
										CHANNELS 3 Zrotation Yrotation Xrotation
										End Site
										{
											OFFSET 0.000000 0.000000 0.000000
										}
									}
								}
								JOINT LThumb
								{
									OFFSET 0.000000 0.000000 0.000000
									CHANNELS 3 Zrotation Yrotation Xrotation
									End Site
									{
										OFFSET 0.000000 0.000000 0.000000
									}
								}
							}
						}
					}
				}
				JOINT RightShoulder
				{
					OFFSET 0.000000 0.000000 0.000000
					CHANNELS 3 Zrotation Yrotation Xrotation
					JOINT RightArm
					{
						OFFSET -3.136600 1.374050 -0.404650
						CHANNELS 3 Zrotation Yrotation Xrotation
						JOINT RightForeArm
						{
							OFFSET -5.241900 -0.000000 -0.000000
							CHANNELS 3 Zrotation Yrotation Xrotation
							JOINT RightHand
							{
								OFFSET -3.444170 -0.000000 -0.000000
								CHANNELS 3 Zrotation Yrotation Xrotation
								JOINT RightFingerBase
								{
									OFFSET 0.000000 0.000000 0.000000
									CHANNELS 3 Zrotation Yrotation Xrotation
									JOINT RightHandIndex1
									{
										OFFSET -0.622530 -0.000000 -0.000000
										CHANNELS 3 Zrotation Yrotation Xrotation
										End Site
										{
											OFFSET 0.000000 0.000000 0.000000
										}
									}
								}
								JOINT RThumb
								{
									OFFSET 0.000000 0.000000 0.000000
									CHANNELS 3 Zrotation Yrotation Xrotation
									End Site
									{
										OFFSET 0.000000 0.000000 0.000000
									}
								}
							}
						}
					}
				}
			}
		}
	}
}
}
MOTION
Frames: 9
Frame Time: 0.008333
9.693002 16.060486 1.559844 26.988737 -83.602743 -1.987996 4.472122 -5.052310 3.240928 0.132215 -5.274221 -1.873546 -7.165547 -5.241943 1.748074 8.500974 -14.156852 -8.526595 -3.017579 -0.208503 -0.410658 0.000000 0.000000 0.000000 1.866232 2.331563 3.084741 -30.345096 -4.477268 19.352449 -0.533471 -82.242447 0.017684 -10.843238 6.734120 -0.637476 0.057081 0.058588 -0.000000 0.000000 0.000000 0.000000 0.000000 0.000000 0.000000 14.360272 -13.217466 1.642188 63.829437 -16.913292 10.337328 3.045750 41.789048 0.009320 7.146975 3.877341 0.244050 0.042800 -0.046178 0.000000 0.000000 0.000000 0.000000 0.000000 0.000000 0.000000 
9.510292 16.079495 1.536835 23.165446 -84.129916 2.285831 4.940306 -4.880937 3.216852 0.215300 -5.116050 -1.915256 -7.157336 -5.090835 1.659290 8.463925 -13.847487 -8.521103 -2.998094 -0.206971 -0.413143 0.000000 0.000000 0.000000 1.796271 2.470906 3.087752 -31.215204 -3.368945 20.267944 -0.571004 -81.851980 0.015513 -10.754407 6.748691 -0.633935 0.050289 0.051138 0.000000 0.000000 0.000000 0.000000 0.000000 0.000000 0.000000 14.159439 -12.761555 1.687238 63.721521 -16.462466 10.861469 3.024616 42.213067 0.009692 7.048294 3.898002 0.242062 0.043033 -0.049419 0.000000 0.000000 0.000000 0.000000 0.000000 0.000000 0.000000 
9.332594 16.101595 1.513651 19.023353 -84.654381 6.919589 5.336675 -4.697268 3.201899 0.281938 -4.945138 -1.953994 -7.138108 -4.927029 1.568568 8.431704 -13.546995 -8.518976 -2.967546 -0.204476 -0.417145 0.000000 0.000000 0.000000 1.772950 2.608188 3.086572 -32.074988 -2.247177 21.205489 -0.610735 -81.413617 0.013425 -10.659717 6.778332 -0.631397 0.043962 0.043750 0.000000 0.000000 0.000000 0.000000 0.000000 0.000000 0.000000 13.923996 -12.303998 1.734620 63.631502 -15.993901 11.489354 2.993553 42.746226 0.010083 6.927405 3.911989 0.238976 0.043159 -0.053133 0.000000 0.000000 0.000000 0.000000 0.000000 0.000000 0.000000 
9.160069 16.126237 1.489525 14.926578 -85.137518 11.537685 5.620618 -4.516090 3.201098 0.325719 -4.774283 -1.988655 -7.106943 -4.763292 1.474432 8.406753 -13.257809 -8.516305 -2.925912 -0.201062 -0.421554 0.000000 0.000000 0.000000 1.806524 2.711426 3.081754 -32.915138 -1.077337 22.159411 -0.650131 -80.959102 0.011461 -10.573808 6.822181 -0.630767 0.038560 0.036359 0.000000 0.000000 0.000000 0.000000 0.000000 0.000000 0.000000 13.657372 -11.854171 1.784850 63.570002 -15.514766 12.198247 2.951990 43.377687 0.010467 6.787473 3.909054 0.234190 0.043141 -0.057272 0.000000 0.000000 0.000000 0.000000 0.000000 0.000000 0.000000 
8.992498 16.152884 1.464559 10.964668 -85.551095 16.056324 5.802097 -4.347031 3.199465 0.350968 -4.613600 -2.021259 -7.062781 -4.609673 1.382092 8.385887 -12.987238 -8.516079 -2.872599 -0.196663 -0.426982 0.000000 0.000000 0.000000 1.894360 2.792812 3.074827 -33.731596 0.110843 23.138680 -0.688953 -80.492946 0.009667 -10.508343 6.875513 -0.632148 0.034224 0.029138 0.000000 0.000000 0.000000 0.000000 0.000000 0.000000 0.000000 13.355789 -11.425014 1.835306 63.537929 -15.026398 12.971130 2.900706 44.099550 0.010820 6.637256 3.877837 0.227504 0.042935 -0.061693 0.000000 0.000000 0.000000 0.000000 0.000000 0.000000 0.000000 
8.829593 16.181178 1.438488 7.408729 -85.870253 20.206284 5.886568 -4.199394 3.189017 0.360709 -4.471915 -2.053141 -7.006414 -4.474974 1.292584 8.369697 -12.740319 -8.518172 -2.808427 -0.191355 -0.433276 0.000000 0.000000 0.000000 2.038640 2.842088 3.066710 -34.525327 1.320673 24.140094 -0.726161 -80.030695 0.008083 -10.476193 6.933632 -0.636039 0.031184 0.022187 0.000000 0.000000 0.000000 0.000000 0.000000 0.000000 0.000000 13.023824 -11.026588 1.885109 63.534348 -14.535494 13.790313 2.840386 44.907685 0.011130 6.487992 3.812135 0.218919 0.042476 -0.066305 0.000000 0.000000 0.000000 0.000000 0.000000 0.000000 0.000000 
8.670929 16.210897 1.411100 4.556358 -86.085798 23.694228 5.884754 -4.077668 3.163455 0.357909 -4.353303 -2.086263 -6.940424 -4.363355 1.202993 8.359268 -12.519862 -8.519841 -2.735246 -0.185333 -0.439562 0.000000 0.000000 0.000000 2.238234 2.833043 3.057268 -35.297944 2.585956 25.146379 -0.760032 -79.597694 0.006732 -10.487520 6.991503 -0.642640 0.029679 0.015571 0.000000 0.000000 0.000000 0.000000 0.000000 0.000000 0.000000 12.669020 -10.663909 1.935268 63.555609 -14.054501 14.638569 2.772102 45.803003 0.011406 6.351542 3.712764 0.209131 0.041726 -0.071085 0.000000 0.000000 0.000000 0.000000 0.000000 0.000000 0.000000 
8.515895 16.241755 1.382836 2.475546 -86.201545 26.467175 5.823782 -3.979065 3.107614 0.348233 -4.256100 -2.122655 -6.865781 -4.272941 1.118381 8.353134 -12.335911 -8.527435 -2.653845 -0.178584 -0.447529 0.000000 0.000000 0.000000 2.485368 2.792035 3.047088 -36.056587 3.860970 26.156895 -0.791578 -79.183801 0.005650 -10.541503 7.040811 -0.651050 0.029532 0.009576 0.000000 0.000000 0.000000 0.000000 0.000000 0.000000 0.000000 12.295398 -10.346940 1.983458 63.588711 -13.584124 15.508136 2.697027 46.791513 0.011665 6.237871 3.585844 0.198743 0.040652 -0.076017 0.000000 0.000000 0.000000 0.000000 0.000000 0.000000 0.000000 
8.364223 16.273666 1.353841 1.295928 -86.230320 28.396815 5.714151 -3.899965 3.018995 0.332707 -4.176808 -2.164284 -6.785835 -4.200322 1.033659 8.351529 -12.188773 -8.538659 -2.566829 -0.171347 -0.456479 0.000000 0.000000 0.000000 2.768961 2.695826 3.035452 -36.801526 5.181014 27.144018 -0.819281 -78.811677 0.004822 -10.634160 7.077117 -0.660768 0.030724 0.004264 -0.000000 0.000000 0.000000 0.000000 0.000000 0.000000 0.000000 11.911727 -10.073580 2.031781 63.624447 -13.138988 16.381687 2.616332 47.881649 0.011953 6.153691 3.445553 0.188855 0.039266 -0.081218 0.000000 0.000000 0.000000 0.000000 0.000000 0.000000 0.000000 
